<?xml version="1.0" encoding="utf-8"?>
<!-- Generator: Adobe Illustrator 19.1.0, SVG Export Plug-In . SVG Version: 6.00 Build 0)  -->
<svg version="1.1" id="Layer_1" xmlns="http://www.w3.org/2000/svg" xmlns:xlink="http://www.w3.org/1999/xlink" x="0px" y="0px"
	 viewBox="0 0 685 320" style="enable-background:new 0 0 685 320;" xml:space="preserve">
<style type="text/css">
	.st0{fill:#7DBD42;}
	.st1{fill:#F08322;}
</style>
<g>
	<path class="st0" d="M633.4,109.6c-6.1-3.1-13.1-4.7-21-4.7c-5.3,0-10.3,0.7-14.9,2.1c-4.6,1.4-8.5,3.4-11.9,6
		c-3.4,2.6-6,5.8-7.9,9.5c-1.9,3.7-2.8,7.9-2.8,12.5c0,5.6,1.4,10.6,4.1,14.8c2.8,4.2,6.5,7.6,11.3,10.1c-4.2,2-7.3,4.6-9.3,7.7
		c-2,3.1-3,6-3,8.7c0,3.4,0.7,6.2,2.1,8.3c1.4,2.1,3.3,3.9,5.6,5.2c-4.4,1.7-7.9,4.1-10.4,6.9c-2.5,2.9-3.8,6.4-3.8,10.5
		c0,3.2,0.8,6.2,2.5,9.2c1.7,2.9,4.2,5.5,7.7,7.8c3.5,2.3,7.8,4.1,13.1,5.4c5.3,1.4,11.5,2,18.6,2c7.2,0,13.6-0.9,19.3-2.8
		c5.6-1.9,10.4-4.3,14.3-7.4c3.9-3.1,6.8-6.5,8.9-10.4c2-3.9,3.1-7.9,3.1-12.1c0-4.4-0.9-8.1-2.6-10.9c-1.7-2.8-4-5.1-6.8-6.8
		c-2.8-1.7-6-2.9-9.5-3.7c-3.6-0.7-7.2-1.3-10.9-1.6c-3.7-0.3-7.3-0.5-10.9-0.6c-3.6-0.1-6.8-0.3-9.5-0.6c-2.8-0.3-5-0.9-6.8-1.7
		c-1.7-0.8-2.6-2-2.6-3.8c0-1.9,1.3-3.6,3.8-5.1c2.9,0.5,6,0.8,9.3,0.8c5.2,0,10.1-0.7,14.6-2.1c4.5-1.4,8.4-3.4,11.7-6
		c3.3-2.6,5.9-5.8,7.8-9.5c1.9-3.7,2.8-7.8,2.8-12.5c0-3.4-0.5-6.5-1.5-9.5l7.6-1.5c1.9-0.4,3.2-1.1,4-1.9c0.8-0.8,1.2-2,1.2-3.4
		v-9.1H633.4z M634.8,207.7c-0.8,1.4-2,2.6-3.7,3.6c-1.7,1-4,1.8-6.8,2.3c-2.8,0.5-6.3,0.8-10.4,0.8c-4,0-7.3-0.3-9.9-0.8
		c-2.6-0.5-4.8-1.2-6.4-2.1c-1.6-0.9-2.8-2-3.5-3.2c-0.7-1.3-1-2.6-1-4.1c0-2.2,0.7-4.1,2-5.8c1.4-1.7,3.1-3.2,5.2-4.5
		c2.7,0.3,5.5,0.5,8.3,0.6c2.8,0.1,5.6,0.3,8.2,0.4c2.6,0.2,5.1,0.4,7.5,0.6c2.3,0.3,4.4,0.7,6.1,1.3c1.7,0.6,3.1,1.4,4.1,2.4
		c1,1,1.5,2.3,1.5,4C636,204.8,635.6,206.3,634.8,207.7 M601.3,145.6c-2.4-2.6-3.6-5.9-3.6-10c0-4.3,1.2-7.6,3.6-10
		c2.4-2.4,6.2-3.6,11.3-3.6c5.1,0,8.9,1.2,11.3,3.6c2.4,2.4,3.6,5.8,3.6,10c0,4.1-1.2,7.4-3.6,10c-2.4,2.6-6.2,3.9-11.3,3.9
		C607.4,149.5,603.7,148.2,601.3,145.6 M497.3,110.9c-1-2.9-3.1-4.3-6.2-4.3h-15.3v92.8h24.9v-66.7c2.8-2.7,5.7-4.8,8.7-6.3
		c3.1-1.5,6.3-2.2,9.8-2.2c4.7,0,8.2,1.4,10.6,4.3c2.4,2.9,3.6,6.9,3.6,12v59h24.8v-59c0-5.2-0.7-9.9-2-14.2c-1.4-4.3-3.4-8-6-11.2
		c-2.7-3.1-6-5.6-9.9-7.3c-3.9-1.7-8.4-2.6-13.4-2.6c-3.1,0-5.9,0.3-8.5,0.9c-2.6,0.6-5,1.4-7.3,2.5c-2.3,1.1-4.4,2.4-6.4,3.9
		c-2,1.5-3.9,3.2-5.8,5L497.3,110.9z M406.3,106.6c-1.6,0-3,0.4-4.2,1.3c-1.2,0.8-2,1.9-2.4,3.2l-12,45.9c-0.8,2.9-1.5,5.8-2,8.6
		c-0.6,2.8-1.1,5.6-1.6,8.3c-0.7-2.8-1.4-5.6-2.2-8.4c-0.8-2.8-1.6-5.6-2.4-8.5l-13.1-46.1c-0.4-1.3-1.2-2.3-2.5-3.2
		c-1.2-0.8-2.7-1.3-4.5-1.3h-11c-1.6,0-3,0.4-4.2,1.3c-1.2,0.8-2,1.9-2.4,3.2L328.2,157c-0.9,2.9-1.8,5.8-2.6,8.6
		c-0.8,2.8-1.6,5.5-2.3,8.2c-0.5-2.7-1-5.4-1.5-8.2c-0.5-2.8-1.2-5.6-1.9-8.6l-11.4-45.9c-0.4-1.3-1.2-2.4-2.5-3.2
		c-1.2-0.8-2.7-1.3-4.5-1.3h-19.8l29.2,92.8h19.1c2.8,0,4.6-1.4,5.4-4.3l15.3-50.1c0.6-1.9,1.1-3.9,1.6-5.8c0.4-1.9,0.9-3.9,1.3-5.8
		c0.4,1.9,0.8,3.8,1.2,5.7c0.4,1.9,1,3.8,1.6,5.7l15.1,50.2c0.4,1.6,1,2.7,1.8,3.3c0.8,0.7,1.7,1,2.7,1h20.1l29.2-92.8H406.3z
		 M214.3,174.8c-3.4-4.9-5.1-12.2-5.1-21.8c0-9.6,1.7-16.9,5.1-21.7c3.4-4.9,8.8-7.3,16-7.3c7.1,0,12.3,2.4,15.8,7.3
		c3.4,4.9,5.1,12.1,5.1,21.7c0,9.7-1.7,16.9-5.1,21.8c-3.4,4.9-8.7,7.3-15.8,7.3C223,182.1,217.7,179.7,214.3,174.8 M211.2,108.4
		c-5.7,2.2-10.6,5.4-14.7,9.5c-4.1,4.1-7.2,9.1-9.5,15c-2.3,5.9-3.4,12.5-3.4,19.9c0,7.4,1.1,14,3.4,19.9c2.3,5.9,5.4,10.9,9.5,15.1
		c4.1,4.1,9,7.3,14.7,9.5c5.7,2.2,12.1,3.3,19.1,3.3c7,0,13.3-1.1,19-3.3c5.7-2.2,10.6-5.4,14.7-9.5c4.1-4.1,7.2-9.2,9.5-15.1
		c2.2-5.9,3.3-12.6,3.3-19.9c0-7.4-1.1-14-3.3-19.9c-2.2-5.9-5.4-10.9-9.5-15c-4.1-4.1-9-7.3-14.7-9.5c-5.7-2.2-12-3.3-19-3.3
		C223.3,105.1,216.9,106.2,211.2,108.4 M144.7,112.6c-0.4-2.2-1.1-3.8-2.1-4.7c-1-0.9-2.7-1.4-5.2-1.4h-14.7v92.8h24.9v-56.8
		c1-2.2,2-4.2,3.1-5.9c1.1-1.7,2.4-3.2,3.7-4.4c1.4-1.2,3-2.1,4.7-2.8c1.8-0.7,3.8-1,6.1-1c1.6,0,3.2,0.1,5,0.4
		c1.8,0.3,3.2,0.4,4.1,0.4c1.1,0,1.9-0.2,2.6-0.7c0.6-0.4,1.1-1.3,1.4-2.5l1.6-18.4c-2.6-2-6.1-3-10.3-3c-5.2,0-9.7,1.5-13.5,4.6
		c-3.8,3.1-7.2,7.2-10.2,12.5L144.7,112.6z M82.5,109.6c-6.1-3.1-13.1-4.7-21-4.7c-5.3,0-10.3,0.7-14.9,2.1c-4.6,1.4-8.5,3.4-11.9,6
		s-6,5.8-7.9,9.5c-1.9,3.7-2.8,7.9-2.8,12.5c0,5.6,1.4,10.6,4.1,14.8c2.8,4.2,6.5,7.6,11.3,10.1c-4.2,2-7.3,4.6-9.3,7.7
		c-2,3.1-3,6-3,8.7c0,3.4,0.7,6.2,2.1,8.3c1.4,2.1,3.3,3.9,5.6,5.2c-4.4,1.7-7.9,4.1-10.4,6.9c-2.5,2.9-3.8,6.4-3.8,10.5
		c0,3.2,0.8,6.2,2.5,9.2c1.7,2.9,4.2,5.5,7.7,7.8c3.5,2.3,7.8,4.1,13.1,5.4c5.3,1.4,11.5,2,18.6,2c7.2,0,13.6-0.9,19.3-2.8
		c5.6-1.9,10.4-4.3,14.3-7.4c3.9-3.1,6.8-6.5,8.9-10.4c2-3.9,3.1-7.9,3.1-12.1c0-4.4-0.9-8.1-2.6-10.9c-1.7-2.8-4-5.1-6.8-6.8
		c-2.8-1.7-6-2.9-9.5-3.7c-3.6-0.7-7.2-1.3-10.9-1.6c-3.7-0.3-7.3-0.5-10.9-0.6c-3.6-0.1-6.8-0.3-9.5-0.6c-2.8-0.3-5-0.9-6.8-1.7
		c-1.7-0.8-2.6-2-2.6-3.8c0-1.9,1.3-3.6,3.8-5.1c2.9,0.5,6,0.8,9.3,0.8c5.2,0,10.1-0.7,14.6-2.1c4.5-1.4,8.4-3.4,11.7-6
		c3.3-2.6,5.9-5.8,7.8-9.5c1.9-3.7,2.8-7.8,2.8-12.5c0-3.4-0.5-6.5-1.5-9.5l7.6-1.5c1.9-0.4,3.2-1.1,4-1.9c0.8-0.8,1.2-2,1.2-3.4
		v-9.1H82.5z M83.9,207.7c-0.8,1.4-2,2.6-3.7,3.6c-1.7,1-4,1.8-6.8,2.3c-2.8,0.5-6.3,0.8-10.4,0.8c-4,0-7.3-0.3-9.9-0.8
		c-2.6-0.5-4.8-1.2-6.4-2.1c-1.6-0.9-2.8-2-3.5-3.2c-0.7-1.3-1-2.6-1-4.1c0-2.2,0.7-4.1,2-5.8c1.4-1.7,3.1-3.2,5.2-4.5
		c2.7,0.3,5.5,0.5,8.3,0.6c2.8,0.1,5.6,0.3,8.2,0.4c2.6,0.2,5.1,0.4,7.5,0.6c2.3,0.3,4.4,0.7,6.1,1.3c1.7,0.6,3.1,1.4,4.1,2.4
		c1,1,1.5,2.3,1.5,4C85,204.8,84.7,206.3,83.9,207.7 M50.3,145.6c-2.4-2.6-3.6-5.9-3.6-10c0-4.3,1.2-7.6,3.6-10
		c2.4-2.4,6.2-3.6,11.3-3.6s8.9,1.2,11.3,3.6c2.4,2.4,3.6,5.8,3.6,10c0,4.1-1.2,7.4-3.6,10c-2.4,2.6-6.2,3.9-11.3,3.9
		C56.5,149.5,52.8,148.2,50.3,145.6"/>
	<path class="st0" d="M567.1,241.2c-1.9-1.8-4.1-3.2-6.8-4.3c-2.6-1-5.6-1.6-8.9-1.6c-2.9,0-5.4,0.4-7.6,1.2
		c-2.2,0.8-4.1,1.9-5.6,3.2c-1.5,1.3-2.7,2.9-3.5,4.6c-0.8,1.8-1.2,3.6-1.2,5.5c0,2.1,0.4,4,1.1,5.5c0.7,1.5,1.7,2.8,2.9,3.8
		c1.2,1,2.5,1.9,4.1,2.6c1.5,0.7,3.1,1.3,4.7,1.8c1.6,0.5,3.1,1,4.7,1.5c1.5,0.5,2.9,1,4.1,1.6c1.2,0.6,2.1,1.4,2.9,2.2
		c0.7,0.9,1.1,1.9,1.1,3.2c0,1-0.2,2-0.6,2.9c-0.4,0.9-1,1.7-1.8,2.4c-0.8,0.7-1.8,1.2-3,1.7c-1.2,0.4-2.6,0.6-4.2,0.6
		c-1.9,0-3.6-0.2-4.9-0.7c-1.3-0.4-2.4-0.9-3.3-1.5s-1.7-1-2.3-1.5c-0.6-0.5-1.3-0.7-1.9-0.7c-0.6,0-1.2,0.1-1.6,0.4
		c-0.4,0.2-0.7,0.6-1,1l-2.2,3.7c1.9,1.8,4.4,3.2,7.3,4.3c2.9,1.1,6,1.7,9.4,1.7c3.1,0,5.8-0.4,8.1-1.2c2.4-0.8,4.4-1.9,6-3.4
		s2.8-3.1,3.7-5.1c0.8-2,1.2-4.1,1.2-6.4c0-2-0.4-3.7-1.1-5.1c-0.7-1.4-1.7-2.6-2.9-3.6c-1.2-1-2.5-1.8-4-2.5
		c-1.5-0.7-3.1-1.3-4.6-1.8c-1.6-0.5-3.1-1-4.6-1.5c-1.5-0.5-2.9-1-4-1.6c-1.2-0.6-2.1-1.3-2.9-2.1c-0.7-0.8-1.1-1.8-1.1-3.1
		c0-0.9,0.2-1.8,0.6-2.7c0.4-0.8,1-1.5,1.8-2.1c0.8-0.6,1.7-1.1,2.8-1.4c1.1-0.3,2.4-0.5,3.7-0.5c1.7,0,3.1,0.2,4.3,0.5
		c1.2,0.4,2.2,0.7,3.1,1.2c0.9,0.4,1.7,0.8,2.3,1.2c0.6,0.4,1.2,0.5,1.7,0.5c0.5,0,0.8-0.1,1.1-0.3c0.3-0.2,0.6-0.5,0.8-0.9
		L567.1,241.2z M504.9,238.6c-0.2-0.9-0.4-1.6-0.8-2c-0.4-0.4-1.1-0.6-2.1-0.6h-5.5v49.5h9.5v-31c0.6-1.6,1.3-3,2-4.3
		c0.7-1.2,1.5-2.3,2.5-3.2c0.9-0.9,2-1.5,3.1-1.9c1.2-0.4,2.5-0.7,4-0.7c1,0,2,0.1,2.9,0.3c0.9,0.2,1.6,0.3,2,0.3
		c0.8,0,1.4-0.4,1.6-1.3l0.6-7.2c-0.7-0.5-1.5-0.9-2.5-1.1c-1-0.2-2-0.4-3-0.4c-3.2,0-5.8,0.9-8.1,2.8c-2.2,1.9-4.2,4.4-5.7,7.6
		L504.9,238.6z M447.7,274.1c-2.3-3.1-3.5-7.6-3.5-13.3c0-5.7,1.2-10.2,3.5-13.3c2.3-3.2,5.9-4.7,10.6-4.7c4.7,0,8.2,1.6,10.5,4.7
		c2.3,3.2,3.5,7.6,3.5,13.3c0,5.7-1.2,10.1-3.5,13.3c-2.3,3.2-5.8,4.7-10.5,4.7C453.6,278.9,450,277.3,447.7,274.1 M448.4,237.1
		c-2.9,1.2-5.4,2.9-7.5,5.1c-2.1,2.2-3.7,4.9-4.8,8c-1.1,3.1-1.7,6.6-1.7,10.5c0,3.9,0.6,7.4,1.7,10.6s2.7,5.8,4.8,8
		c2.1,2.2,4.6,3.9,7.5,5.1c2.9,1.2,6.2,1.8,9.9,1.8c3.6,0,6.9-0.6,9.9-1.8c2.9-1.2,5.4-2.9,7.5-5.1c2.1-2.2,3.6-4.9,4.7-8
		c1.1-3.1,1.7-6.7,1.7-10.6c0-3.9-0.6-7.4-1.7-10.5c-1.1-3.1-2.7-5.8-4.7-8c-2.1-2.2-4.6-3.9-7.5-5.1c-2.9-1.2-6.2-1.8-9.9-1.8
		C454.6,235.3,451.3,235.9,448.4,237.1 M388.1,213.7h-9.5v71.9h6.1c1.4,0,2.2-0.7,2.4-2l0.4-4.1c0.8,1.1,1.7,2,2.7,2.9
		c0.9,0.8,2,1.6,3.1,2.1c1.1,0.6,2.3,1,3.7,1.3c1.3,0.3,2.8,0.5,4.4,0.5c3.3,0,6.2-0.6,8.9-1.9c2.6-1.3,4.9-3.1,6.7-5.4
		c1.8-2.3,3.2-5.1,4.2-8.4c1-3.3,1.5-6.9,1.5-10.9c0-3.8-0.4-7.1-1.3-10.1c-0.9-3-2.1-5.5-3.7-7.6c-1.6-2.1-3.6-3.7-5.9-4.8
		c-2.3-1.1-4.9-1.7-7.8-1.7c-3.3,0-6.3,0.7-8.9,2.1c-2.6,1.4-4.9,3.2-7,5.5V213.7z M388.1,250c1.7-2.3,3.6-4,5.6-5.3
		c2-1.2,4.4-1.9,7.1-1.9c3.9,0,6.8,1.4,9,4.1c2.1,2.7,3.2,7.1,3.2,12.9c0,6.4-1.2,11.1-3.6,14.3c-2.4,3.2-5.8,4.7-10.2,4.7
		c-2.1,0-4.1-0.4-5.9-1.2c-1.8-0.8-3.5-2.2-5.1-4.3V250z M329.7,213.7h-9.5v71.9h9.5v-36.3c1.8-2,3.8-3.5,5.9-4.7
		c2.1-1.2,4.4-1.7,6.8-1.7c3.3,0,5.8,1,7.5,2.9c1.6,2,2.4,4.7,2.4,8.3v31.5h9.5v-31.5c0-2.8-0.4-5.3-1.1-7.6
		c-0.7-2.3-1.8-4.3-3.2-5.9c-1.4-1.6-3.1-2.9-5.2-3.8c-2.1-0.9-4.5-1.4-7.2-1.4c-3.3,0-6.2,0.6-8.7,1.9c-2.5,1.3-4.8,3-6.9,5.1
		V213.7z M293.9,238c-3.1-1.8-6.8-2.7-11.1-2.7c-2.8,0-5.3,0.4-7.6,1.1c-2.3,0.7-4.3,1.8-6,3.2c-1.7,1.4-3,3.1-3.9,5
		c-0.9,1.9-1.4,4.1-1.4,6.6c0,3,0.7,5.7,2.1,7.9c1.4,2.3,3.3,4.1,5.7,5.4c-1,0.6-2,1.2-2.7,1.9c-0.8,0.7-1.5,1.4-2,2.2
		c-0.5,0.8-0.9,1.5-1.2,2.3c-0.3,0.8-0.4,1.5-0.4,2.2c0,1.9,0.4,3.3,1.3,4.5c0.8,1.1,2,2,3.4,2.7c-2.6,0.9-4.7,2.2-6.2,3.9
		c-1.5,1.7-2.2,3.7-2.2,6.1c0,1.7,0.4,3.4,1.3,5c0.9,1.6,2.2,3,4,4.2c1.8,1.2,4.1,2.2,6.8,2.9c2.7,0.7,5.9,1.1,9.6,1.1
		c3.7,0,6.9-0.5,9.8-1.4c2.9-0.9,5.3-2.2,7.4-3.7c2-1.6,3.5-3.3,4.6-5.4c1.1-2,1.6-4.1,1.6-6.2c0-2.3-0.5-4.2-1.4-5.6
		c-1-1.4-2.2-2.6-3.7-3.4s-3.3-1.4-5.3-1.8c-2-0.4-4-0.6-6.1-0.8c-2.1-0.1-4.1-0.3-6.1-0.3c-2-0.1-3.8-0.2-5.3-0.5
		c-1.5-0.2-2.8-0.6-3.7-1.2c-1-0.6-1.4-1.4-1.4-2.5c0-0.7,0.3-1.4,0.8-2.1c0.5-0.7,1.2-1.3,2.2-1.9c1.9,0.5,4,0.7,6.3,0.7
		c2.7,0,5.2-0.4,7.5-1.1c2.3-0.7,4.3-1.8,5.9-3.2c1.7-1.4,3-3.1,3.9-5c0.9-2,1.4-4.2,1.4-6.6c0-1.2-0.1-2.4-0.4-3.5
		c-0.3-1.1-0.6-2.2-1.1-3.2l5.3-0.8c1.5-0.3,2.2-1,2.2-2.2V238H293.9z M297.1,291.5c-0.6,1-1.6,1.9-2.8,2.6
		c-1.2,0.7-2.7,1.3-4.5,1.7c-1.8,0.4-3.8,0.6-6.2,0.6c-2.4,0-4.4-0.2-6.1-0.6s-3.1-0.9-4.2-1.6c-1.1-0.7-1.9-1.5-2.5-2.4
		c-0.5-0.9-0.8-1.9-0.8-2.9c0-1.6,0.5-3,1.6-4.2c1.1-1.2,2.5-2.2,4.2-3.1c1.6,0.2,3.2,0.4,5,0.5c1.7,0.1,3.4,0.2,5,0.3
		c1.6,0.1,3.2,0.2,4.7,0.4c1.5,0.2,2.8,0.5,3.9,0.9c1.1,0.4,2,1,2.7,1.7c0.6,0.7,1,1.6,1,2.8C298,289.4,297.7,290.5,297.1,291.5
		 M278.5,260.2c-1.3-0.5-2.4-1.1-3.2-1.9c-0.9-0.8-1.5-1.8-1.9-3c-0.4-1.2-0.7-2.4-0.7-3.8c0-2.9,0.9-5.1,2.6-6.8s4.3-2.6,7.6-2.6
		c3.4,0,5.9,0.9,7.7,2.6c1.7,1.7,2.6,4,2.6,6.8c0,1.4-0.2,2.7-0.7,3.8c-0.4,1.2-1.1,2.2-1.9,3c-0.9,0.8-1.9,1.5-3.2,1.9
		c-1.3,0.5-2.8,0.7-4.5,0.7C281.2,260.9,279.7,260.7,278.5,260.2 M249.1,218.3c-0.4-0.8-0.8-1.5-1.4-2.1c-0.6-0.6-1.3-1.1-2.1-1.4
		c-0.8-0.3-1.7-0.5-2.5-0.5c-0.9,0-1.7,0.2-2.5,0.5c-0.8,0.3-1.5,0.8-2.1,1.4c-0.6,0.6-1.1,1.3-1.4,2.1c-0.3,0.8-0.5,1.6-0.5,2.6
		c0,0.9,0.2,1.7,0.5,2.5c0.3,0.8,0.8,1.5,1.4,2.1c0.6,0.6,1.3,1.1,2.1,1.4c0.8,0.3,1.6,0.5,2.5,0.5c0.9,0,1.7-0.2,2.5-0.5
		c0.8-0.3,1.5-0.8,2.1-1.4c0.6-0.6,1.1-1.3,1.4-2.1c0.4-0.8,0.5-1.6,0.5-2.5C249.6,219.9,249.4,219,249.1,218.3 M238.3,285.6h9.5
		v-49.5h-9.5V285.6z M220.3,275c-0.4-0.6-1-0.9-1.8-0.9c-0.6,0-1.3,0.2-2,0.7c-0.8,0.5-1.7,1-2.8,1.6c-1.1,0.6-2.5,1.1-4,1.6
		c-1.5,0.5-3.4,0.7-5.5,0.7c-2.2,0-4.3-0.4-6.1-1.1c-1.8-0.7-3.4-1.8-4.7-3.3c-1.3-1.5-2.3-3.3-3.1-5.5c-0.7-2.2-1.2-4.8-1.3-7.7
		h32.4c0.9,0,1.5-0.3,1.8-0.8c0.3-0.5,0.5-1.5,0.5-2.9c0-3.5-0.5-6.7-1.6-9.4c-1.1-2.8-2.5-5.1-4.4-7c-1.9-1.9-4-3.3-6.6-4.3
		c-2.5-1-5.3-1.5-8.3-1.5c-3.6,0-6.9,0.6-9.7,1.9c-2.9,1.3-5.3,3-7.3,5.2c-2,2.2-3.5,4.8-4.6,7.8c-1.1,3-1.6,6.2-1.6,9.6
		c0,4.3,0.6,8.1,1.8,11.4c1.2,3.3,2.8,6.1,5,8.3c2.1,2.2,4.6,3.9,7.5,5.1c2.9,1.2,6.1,1.7,9.5,1.7c1.8,0,3.6-0.1,5.4-0.4
		c1.8-0.3,3.6-0.7,5.3-1.4c1.7-0.6,3.3-1.4,4.9-2.4c1.5-1,2.9-2.2,4-3.5L220.3,275z M189.3,255.3c0.6-4.1,2.1-7.3,4.4-9.6
		c2.3-2.3,5.4-3.5,9.4-3.5c1.9,0,3.7,0.3,5.2,1c1.5,0.6,2.8,1.6,3.8,2.7c1,1.2,1.8,2.5,2.4,4.1c0.5,1.6,0.8,3.3,0.8,5.2H189.3z
		 M132.2,238c-0.3-1.3-1.2-1.9-2.5-1.9H124v49.5h9.5v-36.3c1.8-2,3.8-3.5,5.9-4.7c2.1-1.2,4.4-1.7,6.8-1.7c3.3,0,5.8,1,7.5,2.9
		c1.6,2,2.4,4.7,2.4,8.3v31.5h9.5v-31.5c0-2.8-0.4-5.3-1.1-7.6c-0.7-2.3-1.8-4.3-3.2-5.9c-1.4-1.6-3.1-2.9-5.2-3.8
		c-2.1-0.9-4.5-1.4-7.2-1.4c-1.7,0-3.3,0.2-4.8,0.6c-1.5,0.4-2.9,0.9-4.2,1.6c-1.3,0.7-2.6,1.5-3.7,2.4c-1.2,0.9-2.3,2-3.4,3.1
		L132.2,238z"/>
	<path class="st0" d="M456.7,92c0,0,8.3-14.2,4-26.7c-4.3-12.4-17.1-16-17.1-16s12.1,7.3,14.4,17.4C459.6,73.8,460.7,78.5,456.7,92"
		/>
	<path class="st0" d="M462.3,20.8c0,0,18.9,8.3,15,34.3c-3.7,24.4-25.4,46.5-25.4,46.5s12.4-23.8,13.3-47.9
		C466.2,29.7,462.3,20.8,462.3,20.8"/>
	<path class="st0" d="M451.2,101.6c0,0,34.5-33.3,61.1-35.9c26.6-2.6,34.2,0.9,34.2,0.9s-23.2-22.2-49-13.8
		C477.2,59.3,470.8,76.3,451.2,101.6"/>
	<path class="st1" d="M434.7,224.4c0,0-25.3-84.5,16.5-136.7c6.1-7.6,22,2.3,19.8,9.1C458,135.5,439.1,151.5,434.7,224.4"/>
</g>
</svg>
